<?xml version="1.0" encoding="utf-8"?>
<!-- Svg Vector Icons : http://www.onlinewebfonts.com/icon -->
<!DOCTYPE svg PUBLIC "-//W3C//DTD SVG 1.1//EN" "http://www.w3.org/Graphics/SVG/1.1/DTD/svg11.dtd">
<svg version="1.1" xmlns="http://www.w3.org/2000/svg" xmlns:xlink="http://www.w3.org/1999/xlink" x="0px" y="0px" viewBox="0 0 256 256" enable-background="new 0 0 256 256" xml:space="preserve">
<metadata> Svg Vector Icons : http://www.onlinewebfonts.com/icon </metadata>
<g><g><path fill="#000000" d="M128,10C62.8,10,10,62.8,10,128c0,65.2,52.8,118,118,118c65.2,0,118-52.8,118-118C246,62.8,193.2,10,128,10z M126.7,60.7c19.8,0,36,15.9,36,35.4s-16.1,35.4-36,35.4c-19.8,0-36-15.9-36-35.4C90.7,76.6,106.8,60.7,126.7,60.7z M186.9,188.9c0,12.9-21,12.9-45.4,12.9h-26.9c-25.4,0-45.4,0-45.4-12.9v-2.6c0-24.7,20.4-44.7,45.4-44.7h27c25,0,45.4,20.1,45.4,44.7L186.9,188.9L186.9,188.9z"/></g></g>
</svg>